PathFileType	4	(X/Y/Z)	C:\Users\86182\Documents\cortex\Trimmed_M3_L2.trc
DataRate	CameraRate	NumFrames	NumMarkers	Units	OrigDataRate	OrigDataStartFrame	OrigNumFrames
100.00	100.00	       141	2	mm	100.00	181	       901
Frame#	Time	gripper			box			
		X1	Y1	Z1	X2	Y2	Z2	

181	1.800	275.32990	148.74571	216.30666	277.44849	147.03902	80.45137	
182	1.810	275.21375	148.86105	216.74377	277.39334	147.13290	80.89114	
183	1.820	275.09348	148.87593	216.99274	277.27777	147.02722	81.37312	
184	1.830	274.37454	149.10065	217.82176	276.98682	146.78284	82.30534	
185	1.840	274.57101	149.04985	218.13365	277.33847	147.08055	82.30623	
186	1.850	274.48724	148.99980	218.56168	277.39453	147.10950	82.68705	
187	1.860	274.46478	148.94623	218.86876	277.19980	147.09598	83.02081	
188	1.870	274.40259	148.95802	219.31079	276.93292	147.05782	83.45506	
189	1.880	274.21759	149.00372	219.88696	276.68002	147.10744	83.91990	
190	1.890	274.20966	148.95860	220.12135	276.79529	146.87878	84.29653	
191	1.900	274.05099	148.93355	220.63339	276.84521	146.95483	84.77976	
192	1.910	274.11823	148.83995	221.11212	276.78140	146.89696	85.26865	
193	1.920	274.15927	148.83861	221.51665	276.84634	146.94226	85.63988	
194	1.930	274.19601	148.78020	221.83881	276.75580	146.85667	85.99585	
195	1.940	273.91479	148.83102	222.40984	276.70682	146.92888	86.28561	
196	1.950	274.13571	148.95250	222.89656	276.90781	146.90276	86.89024	
197	1.960	274.76135	148.68991	223.24483	276.89468	147.00803	87.48218	
198	1.970	274.14957	148.74333	223.63852	276.84985	146.87534	87.98795	
199	1.980	274.32031	148.92157	224.21283	276.92368	146.91016	88.21301	
200	1.990	274.28741	149.04767	224.60393	276.92587	147.02626	88.53360	
201	2.000	274.02859	149.00827	225.09602	276.95612	147.09361	88.98917	
202	2.010	274.09201	148.89163	225.50023	276.88480	146.98767	89.70758	
203	2.020	274.44861	148.89328	225.82083	276.88052	147.04333	90.11147	
204	2.030	274.16052	149.08255	226.29929	276.84723	146.93472	90.35023	
205	2.040	274.13141	148.98607	226.69350	277.01749	146.94177	90.57817	
206	2.050	274.01401	148.98680	227.14012	276.78055	146.98685	91.11755	
207	2.060	274.27594	148.95383	227.53268	276.69177	146.99973	91.41620	
208	2.070	274.35507	148.90613	227.78221	276.70264	147.01532	92.01976	
209	2.080	274.21225	149.01297	228.29164	276.85712	147.00145	92.49850	
210	2.090	274.12329	149.03804	228.78165	277.06656	146.92844	92.83373	
211	2.100	273.95749	149.00085	229.29172	276.85886	146.87537	93.12685	
212	2.110	274.30624	149.09648	229.66568	276.74570	147.03302	93.60389	
213	2.120	274.19794	149.04259	230.09621	276.79544	146.96596	94.09288	
214	2.130	274.16852	149.08275	230.67426	276.97098	147.03337	94.67162	
215	2.140	273.80777	149.09798	231.08418	276.78629	147.03783	94.99974	
216	2.150	274.21875	149.13928	231.36861	276.80963	147.04153	95.37213	
217	2.160	274.05460	149.15891	231.90474	276.78641	147.02097	95.86724	
218	2.170	274.03958	149.09787	232.34088	276.67746	147.04849	96.31569	
219	2.180	273.94803	149.22176	232.75621	276.69141	147.13748	96.66880	
220	2.190	274.08948	149.19279	233.11377	276.68781	147.26726	97.17487	
221	2.200	274.06824	149.17856	233.57622	276.60025	147.18887	97.59878	
222	2.210	274.02802	149.20862	233.96202	276.53516	147.12881	98.10331	
223	2.220	273.96240	149.20947	234.32399	276.43246	147.24258	98.47792	
224	2.230	273.91016	149.28468	234.80032	276.42413	147.29132	98.70116	
225	2.240	273.90903	149.33746	235.22684	276.58813	147.30711	99.05991	
226	2.250	273.83295	149.29573	235.66133	276.55899	147.21588	99.86639	
227	2.260	274.03412	149.26707	235.96762	276.47726	147.28238	100.21930	
228	2.270	274.03049	149.21167	236.49828	276.39648	147.23909	100.50338	
229	2.280	273.90909	149.35762	236.95750	276.69785	147.19987	100.87503	
230	2.290	274.08386	149.35254	237.28687	276.58627	147.27603	101.29924	
231	2.300	274.08765	149.28665	237.80063	276.61420	147.37303	101.81596	
232	2.310	274.12277	149.29210	238.30000	276.35751	147.46437	102.41679	
233	2.320	273.97787	149.39911	238.72951	276.64258	147.29755	102.84895	
234	2.330	274.21198	149.44406	239.18320	276.80176	147.31184	103.16940	
235	2.340	274.05490	149.36368	239.67981	276.79590	147.35791	103.47542	
236	2.350	274.12347	149.36394	240.07866	276.59848	147.59190	104.12904	
237	2.360	274.12878	149.41795	240.49849	276.46680	147.49159	104.90955	
238	2.370	274.14899	149.40964	241.00365	276.67007	147.56047	104.98958	
239	2.380	273.96060	149.58034	241.52621	276.54858	147.61278	105.30139	
240	2.390	274.01801	149.52129	241.66461	276.53970	147.55280	105.58903	
241	2.400	274.13449	149.52219	242.14816	276.46671	147.48479	106.28833	
242	2.410	273.99512	149.41534	242.55334	276.29532	147.61871	106.86483	
243	2.420	274.04480	149.49628	243.08667	276.42548	147.67676	107.12406	
244	2.430	273.96323	149.55119	243.38885	276.38055	147.64484	107.34538	
245	2.440	273.95474	149.59750	243.87947	276.50143	147.56654	107.84184	
246	2.450	273.86417	149.53218	244.29599	276.51068	147.78110	108.18459	
247	2.460	273.97751	149.41260	244.58212	276.11386	147.63811	108.73152	
248	2.470	274.07944	149.50098	245.07533	276.40482	147.69437	109.16057	
249	2.480	274.18597	149.56561	245.66426	276.47162	147.57620	109.70908	
250	2.490	273.97296	149.52731	246.04146	276.41580	147.71971	110.13358	
251	2.500	273.84805	149.50197	246.29718	276.33197	147.65234	110.50554	
252	2.510	274.05472	149.40956	246.88831	276.32590	147.63643	110.90430	
253	2.520	274.25171	149.34879	247.38455	276.65051	147.56163	111.44687	
254	2.530	273.99057	149.42719	247.83269	276.84631	147.55971	111.79494	
255	2.540	273.89822	149.46606	248.32486	276.52823	147.60030	112.13175	
256	2.550	273.94525	149.46524	248.65057	276.22610	147.59409	112.68361	
257	2.560	273.81131	149.36833	249.02658	276.44431	147.68346	113.11089	
258	2.570	273.95740	149.26257	249.36346	276.33679	147.62790	113.36110	
259	2.580	273.82413	149.27832	250.02214	276.64917	147.68701	113.77760	
260	2.590	273.81723	149.41278	250.42509	276.31979	147.58745	114.24955	
261	2.600	273.59183	149.35463	250.72652	276.12814	147.45865	114.89977	
262	2.610	273.55643	149.29524	250.98453	276.17490	147.55907	115.11502	
263	2.620	273.44434	149.26326	251.51724	276.14716	147.65150	115.55307	
264	2.630	273.80325	149.29922	252.01009	276.03503	147.56825	115.75403	
265	2.640	273.78741	149.37978	252.36476	276.04852	147.57794	116.44856	
266	2.650	273.50217	149.23422	252.80933	275.97122	147.53069	116.99525	
267	2.660	273.62241	149.24274	253.21678	275.71997	147.46371	117.40666	
268	2.670	273.66525	149.34337	253.58604	275.82144	147.70094	117.67311	
269	2.680	273.55646	149.31349	254.12502	275.97556	147.62761	118.08764	
270	2.690	273.60364	149.25945	254.63963	276.01312	147.59125	118.40485	
271	2.700	273.83710	149.32626	255.00014	275.80597	147.44296	119.08936	
272	2.710	273.78195	149.30299	255.30159	276.06796	147.50040	119.45893	
273	2.720	273.60901	149.35414	255.77744	276.08374	147.71544	119.93624	
274	2.730	273.52026	149.46313	256.34985	275.80441	147.57263	120.38713	
275	2.740	273.72940	149.31749	256.80777	275.69556	147.42528	120.70126	
276	2.750	273.78152	149.29568	257.17749	275.80096	147.55373	121.25356	
277	2.760	273.69495	149.27910	257.51767	275.77036	147.55264	121.59594	
278	2.770	273.53232	149.33546	258.05048	276.00714	147.62411	122.10153	
279	2.780	273.45670	149.42584	258.35107	275.62158	147.59944	122.55164	
280	2.790	273.67880	149.48396	258.86481	275.47446	147.66542	122.88115	
281	2.800	273.76556	149.37419	259.26294	275.59171	147.56595	123.22430	
282	2.810	273.80026	149.34830	259.65836	275.78973	147.61597	123.74509	
283	2.820	273.53448	149.39189	260.05249	275.65613	147.64325	124.08421	
284	2.830	273.61862	149.45128	260.36023	275.63397	147.70433	124.64973	
285	2.840	273.69482	149.43008	261.03101	275.53830	147.70819	125.11485	
286	2.850	273.60999	149.44234	261.39746	275.52637	147.58545	125.41788	
287	2.860	273.64090	149.37691	261.64685	275.67868	147.50281	125.67507	
288	2.870	273.78546	149.38747	262.23038	275.75992	147.63574	126.03417	
289	2.880	273.67166	149.44614	262.58673	275.71606	147.78856	126.77695	
290	2.890	273.73804	149.44511	263.05093	275.58539	147.66681	127.34270	
291	2.900	273.76935	149.52763	263.48920	275.58865	147.62106	127.54958	
292	2.910	273.80182	149.41664	263.98456	275.89371	147.68495	127.82018	
293	2.920	273.84808	149.47479	264.41605	275.79416	147.64223	128.51523	
294	2.930	273.82495	149.51038	264.81519	275.58698	147.68913	128.97827	
295	2.940	273.73599	149.54320	265.34131	275.58594	147.73280	129.42979	
296	2.950	273.71320	149.52573	265.78134	275.90665	147.75107	129.77271	
297	2.960	273.74237	149.53242	265.97479	275.86874	147.64078	130.04393	
298	2.970	273.73856	149.50977	266.61569	275.55637	147.64323	130.48705	
299	2.980	273.76328	149.52167	266.95129	275.47296	147.76117	131.04675	
300	2.990	273.70782	149.59457	267.29562	275.56049	147.81284	131.48007	
301	3.000	273.74225	149.58656	267.69443	275.65967	147.71301	132.00150	
302	3.010	273.72879	149.52856	268.16428	275.86758	147.66936	132.14473	
303	3.020	273.59732	149.55991	268.63766	275.57874	147.67078	132.42680	
304	3.030	273.63562	149.59894	268.99527	275.31116	147.75563	133.02760	
305	3.040	273.68369	149.63489	269.34506	275.48929	147.70358	133.66246	
306	3.050	273.74915	149.54536	269.96970	275.70425	147.82831	134.03119	
307	3.060	273.68188	149.45570	270.21536	275.72275	147.79312	134.18555	
308	3.070	273.59659	149.65363	270.59628	275.55020	147.54570	134.70589	
309	3.080	273.88962	149.65300	271.09811	275.45636	147.63002	135.15425	
310	3.090	273.73215	149.57545	271.44284	275.49707	147.88956	135.66331	
311	3.100	273.73453	149.53540	271.91354	275.74881	147.75999	135.86911	
312	3.110	273.88138	149.65433	272.42389	275.64517	147.64082	136.62755	
313	3.120	273.57507	149.67012	273.00284	275.86649	147.66064	136.88628	
314	3.130	273.60370	149.58534	273.40524	275.74646	147.70041	137.21857	
315	3.140	273.57095	149.56085	273.63098	275.59555	147.68451	137.67888	
316	3.150	273.64764	149.61768	274.43127	275.92279	147.60002	138.16583	
317	3.160	273.49194	149.65332	274.70114	275.90689	147.75391	138.77556	
318	3.170	273.35040	149.75946	275.06638	275.65851	147.84450	139.10406	
319	3.180	273.43286	149.64238	275.55658	275.61594	147.69406	139.48639	
320	3.190	273.35651	149.63837	275.98203	275.51343	147.87566	139.96129	
321	3.200	273.36166	149.70248	276.40747	275.64017	148.01991	140.34473	
